<svg width="34" height="42" viewBox="0 0 34 42" fill="none" xmlns="http://www.w3.org/2000/svg">
<path d="M33.9277 3.20618C33.9129 2.12531 33.4024 1.29615 32.5367 0.652074C31.7894 0.0968339 30.9386 0.000592256 30.0581 0.000592256C21.4978 0.000592256 12.93 0.000592256 4.36965 0.000592256C3.79995 0.000592256 3.23024 -0.0142141 2.66794 0.104237C1.49894 0.34114 0.729465 1.02964 0.263344 2.11051C0.00438745 2.71757 0.0117862 3.34684 0.019185 3.99092C0.0339825 9.44708 0.019185 14.9106 0.019185 20.3668C0.019185 21.4921 0.019185 22.61 0.019185 23.7353C0.019185 28.3178 -0.0104101 32.893 0.00438744 37.4756C0.00438744 38.6305 0.603687 39.5411 1.54333 40.1408C3.01568 41.081 4.30306 40.8219 5.58305 39.8742C6.26373 39.3708 7.15158 39.4893 7.6695 39.8891C8.02464 40.163 8.34278 40.4887 8.67573 40.7922C9.97051 41.9768 11.4725 42.2285 13.1298 41.8139C14.173 41.5548 14.9277 40.8811 15.638 40.126C16.4666 39.2376 17.6726 39.4227 18.3015 40.1334C18.5975 40.4665 18.9304 40.7774 19.2929 41.044C20.4323 41.8731 21.6753 42.1692 23.0663 41.9027C24.2575 41.6732 25.175 41.0217 25.974 40.1556C26.6917 39.3782 27.6757 39.356 28.5488 40.0075C29.7622 40.9107 31.0422 40.9477 32.3221 40.1556C33.5429 39.4004 33.9943 38.2085 33.9869 36.8167C33.9425 25.6157 34.0831 14.4072 33.9129 3.20618H33.9277ZM26.8915 32.4488H7.12199C5.83461 32.4488 4.79138 31.405 4.79138 30.1168C4.79138 28.8287 5.83461 27.7848 7.12199 27.7848H26.8915C28.1788 27.7848 29.2221 28.8287 29.2221 30.1168C29.2221 31.405 28.1788 32.4488 26.8915 32.4488ZM26.8915 22.0843H7.12199C5.83461 22.0843 4.79138 21.0405 4.79138 19.7523C4.79138 18.4642 5.83461 17.4203 7.12199 17.4203H26.8915C28.1788 17.4203 29.2221 18.4642 29.2221 19.7523C29.2221 21.0405 28.1788 22.0843 26.8915 22.0843ZM26.8915 11.7199H7.12199C5.83461 11.7199 4.79138 10.676 4.79138 9.38786C4.79138 8.0997 5.83461 7.05585 7.12199 7.05585H26.8915C28.1788 7.05585 29.2221 8.0997 29.2221 9.38786C29.2221 10.676 28.1788 11.7199 26.8915 11.7199Z" fill="#3D3D3D"/>
</svg>
