<svg width="16" height="16" viewBox="0 0 16 16" fill="none" xmlns="http://www.w3.org/2000/svg">
<mask id="mask0_17_528" style="mask-type:alpha" maskUnits="userSpaceOnUse" x="0" y="0" width="16" height="16">
<rect y="16" width="16" height="16" transform="rotate(-90 0 16)" fill="#D9D9D9"/>
</mask>
<g mask="url(#mask0_17_528)">
<path d="M5.60004 10.6667H10.6667C10.8556 10.6667 11.0139 10.7306 11.1417 10.8583C11.2695 10.9861 11.3334 11.1444 11.3334 11.3333C11.3334 11.5222 11.2695 11.6806 11.1417 11.8083C11.0139 11.9361 10.8556 12 10.6667 12H4.00004C3.81115 12 3.65282 11.9361 3.52504 11.8083C3.39726 11.6806 3.33337 11.5222 3.33337 11.3333L3.33337 4.66667C3.33337 4.47778 3.39726 4.31944 3.52504 4.19167C3.65282 4.06389 3.81115 4 4.00004 4C4.18893 4 4.34726 4.06389 4.47504 4.19167C4.60282 4.31944 4.66671 4.47778 4.66671 4.66667V9.73333L10.6 3.8C10.7223 3.67778 10.8778 3.61667 11.0667 3.61667C11.2556 3.61667 11.4112 3.67778 11.5334 3.8C11.6556 3.92222 11.7167 4.07778 11.7167 4.26667C11.7167 4.45556 11.6556 4.61111 11.5334 4.73333L5.60004 10.6667Z" fill="#8AC926"/>
</g>
</svg>
