<svg width="16" height="17" viewBox="0 0 16 17" fill="none" xmlns="http://www.w3.org/2000/svg">
<mask id="mask0_17_510" style="mask-type:alpha" maskUnits="userSpaceOnUse" x="0" y="0" width="16" height="17">
<rect y="0.5" width="16" height="16" fill="#D9D9D9"/>
</mask>
<g mask="url(#mask0_17_510)">
<path d="M10.6667 6.1L4.73337 12.0333C4.61114 12.1556 4.45559 12.2167 4.2667 12.2167C4.07781 12.2167 3.92225 12.1556 3.80003 12.0333C3.67781 11.9111 3.6167 11.7556 3.6167 11.5667C3.6167 11.3778 3.67781 11.2222 3.80003 11.1L9.73337 5.16666H4.6667C4.47781 5.16666 4.31948 5.10277 4.1917 4.97499C4.06392 4.84722 4.00003 4.68888 4.00003 4.49999C4.00003 4.31111 4.06392 4.15277 4.1917 4.02499C4.31948 3.89722 4.47781 3.83333 4.6667 3.83333H11.3334C11.5223 3.83333 11.6806 3.89722 11.8084 4.02499C11.9361 4.15277 12 4.31111 12 4.49999V11.1667C12 11.3556 11.9361 11.5139 11.8084 11.6417C11.6806 11.7694 11.5223 11.8333 11.3334 11.8333C11.1445 11.8333 10.9861 11.7694 10.8584 11.6417C10.7306 11.5139 10.6667 11.3556 10.6667 11.1667V6.1Z" fill="#3D3D3D"/>
</g>
</svg>
